<svg width="984" height="984" viewBox="0 0 984 984" fill="none" xmlns="http://www.w3.org/2000/svg">
<path d="M478.759 259.315C478.664 259.457 478.603 259.616 478.576 259.792C478.509 260.237 478.299 260.322 477.947 260.045C464.832 249.504 455.91 234.365 443.238 223.104C429.5 210.814 415.312 199.866 402.045 186.427C401.93 186.305 401.788 186.251 401.619 186.265C401.525 186.278 401.447 186.248 401.386 186.174C399.451 183.924 397.294 181.496 394.913 178.889C394.216 178.126 393.641 177.275 393.188 176.336C392.721 175.377 392.183 174.519 391.575 173.762C387.875 169.156 384.79 164.046 382.322 158.433C378.884 150.675 376.264 141.808 375.047 133.346C372.286 114.27 370.421 105.089 350.686 121.634C334.981 134.785 324.148 152.053 318.189 173.438C316.714 178.727 315.788 184.657 315.409 191.23C314.79 202.02 315.257 212.446 317.306 223.023C318.328 228.319 319.4 232.946 320.523 236.904C322.207 242.814 325.021 249.586 328.964 257.218C334.879 268.647 341.474 279.235 349.773 289.316C354.427 294.598 359.314 299.667 364.434 304.524C368.655 308.536 373.894 312.791 380.15 317.29C387.036 322.241 402.047 332.276 408.967 337.153C402.175 336.056 393.657 334.09 388.635 332.879C383.613 331.668 372.171 328.616 366.859 326.753C361.548 324.89 352.276 321.873 345.329 317.725C339.539 314.274 334.412 310.738 329.948 307.117C320.959 299.823 312.788 291.096 305.435 280.937C290.48 260.298 278.924 236.438 275.84 211.838C273.066 189.662 274.95 168.23 281.491 147.541C283.081 142.509 285.431 136.984 288.542 130.965C295.124 118.213 304.059 107.281 315.348 98.1686C327.057 88.7156 340.104 81.2687 354.735 77.0032C362.676 74.6932 369.051 73.2511 373.86 72.6769C378.426 72.1298 383.252 71.5759 388.338 71.0153C389.265 70.914 389.62 71.3159 389.403 72.221C389.059 73.6259 388.409 74.9701 387.455 76.2535C380.076 86.1556 376.379 97.5742 376.366 110.509C376.356 118.422 376.64 125.889 378.578 133.508C381.202 143.816 385.25 153.732 390.722 163.256C393.53 168.139 397.307 173.364 402.056 178.929C408.265 186.211 414.261 192.233 420.044 196.995C426.457 202.277 432.416 207.211 437.921 211.797C447.323 219.632 457.013 229.582 466.99 241.646C472.036 247.758 475.959 253.648 478.759 259.315Z" fill="#039EDF"/>
<path d="M448.037 106.041C457.006 95.7674 471.799 94.2982 484.126 99.6884C498.645 106.041 508.405 120.56 513.641 135.504C521.199 157.075 521.757 180.409 517.608 203.013C516.492 209.092 515.484 214.766 514.584 220.034C514.138 222.655 513.532 225.097 512.768 227.36C512.703 227.547 512.594 227.716 512.45 227.853C512.307 227.99 512.133 228.091 511.944 228.147C511.754 228.204 511.554 228.214 511.361 228.178C511.167 228.141 510.985 228.059 510.83 227.937C508.192 225.86 506.437 222.648 504.55 219.862C503.339 218.059 501.919 216.191 500.289 214.259C496.392 209.619 492.699 204.816 488.377 200.47C480.118 192.141 472.333 184.144 465.021 176.478C457.621 168.71 451.875 161.486 447.783 154.806C443.711 148.159 441.114 141.195 439.991 133.914C439.24 128.99 438.976 124.136 440.519 119.405C442.155 114.359 444.662 109.905 448.037 106.041Z" fill="#039EDF"/>
<path d="M478.759 259.315C483.108 267.171 486.615 274.378 489.28 280.937C495.043 295.101 497.8 310.127 497.549 326.013C501.062 363.668 373.592 295.521 358.539 289.843C356.57 289.096 350.038 286.299 349.773 289.316C341.474 279.235 334.879 268.647 328.964 257.218C325.021 249.586 322.207 242.814 320.522 236.904C319.4 232.946 318.328 228.319 317.306 223.023C315.257 212.446 314.79 202.02 315.409 191.229C315.788 184.657 316.714 178.727 318.189 173.438C324.148 152.053 334.98 134.785 350.686 121.634C353.032 119.668 367.3 108.465 373.92 105.873C371.283 122.334 377.266 155.947 391.575 173.762C407.234 193.222 424.581 206.414 443.238 223.104C455.91 234.365 464.832 249.504 477.947 260.045C478.299 260.322 478.509 260.237 478.576 259.792C478.603 259.616 478.664 259.457 478.759 259.315Z" fill="#FFC02B"/>
<path d="M630.743 184.854C629.297 186.27 607.801 182.761 603.637 184.348C598.348 186.367 593.332 188.867 588.591 191.845C587.718 192.392 586.836 192.923 585.943 193.436C583.497 194.834 581.326 196.759 579.307 198.634C578.949 198.965 578.533 199.188 578.059 199.302C577.728 199.388 577.426 199.567 577.187 199.819C575.462 201.663 573.642 203.507 571.728 205.351C570.856 206.189 569.942 206.976 568.989 207.712C567.406 208.928 566.188 210.37 565.336 212.038C565.163 212.364 564.908 212.639 564.596 212.839C564.129 213.129 563.784 213.527 563.561 214.034C563.27 214.676 563.385 214.76 563.906 214.287L564.738 213.538C565.116 213.2 565.211 213.267 565.022 213.74C564.636 214.683 563.459 215.382 562.83 216.395C561.166 219.083 559.475 221.589 557.757 223.913C555.593 226.817 553.739 229.89 552.197 233.133C551.967 233.619 551.345 234.771 550.33 236.588C549.701 237.709 549.106 238.871 548.545 240.073C543.776 250.218 540.32 259.833 538.175 268.918C537.31 272.593 536.572 276.446 535.964 280.479C535.355 284.504 534.898 288.469 534.594 292.373C534.384 295.062 534.117 297.659 533.792 300.165C533.508 302.374 533.363 304.592 533.356 306.821C533.356 309.348 533.498 311.597 533.782 313.569C534.276 316.967 533.931 320 532.747 322.668C531.449 310.334 530.738 301.728 530.617 296.852C530.292 283.437 531.432 269.921 534.036 256.304C535.423 249.043 537.289 242.548 539.636 236.821C545.775 221.836 555.028 208.867 566.899 198.056C585.06 181.501 612.18 171.105 636.845 176.293C637.01 176.328 637.162 176.409 637.284 176.526C637.406 176.643 637.492 176.791 637.533 176.955C637.574 177.119 637.569 177.29 637.517 177.451C637.465 177.612 637.37 177.754 637.241 177.863C637.241 177.863 632.189 183.438 630.743 184.854Z" fill="#039EDF"/>
<path d="M631.268 184.337C618.849 196.941 612.554 211.735 610.23 229.222C609.263 236.558 608.935 243.915 609.246 251.291C608.894 251.054 608.566 251.044 608.262 251.267C607.987 251.477 607.36 253.357 607.369 253.824C607.518 259.349 608.005 264.911 608.83 270.517C609.277 273.564 624.993 304.576 625.879 307.507C629.535 315.686 633.518 323.198 635.922 329.269C638.326 335.339 644.767 361.822 644.199 378.655C643.807 390.002 643.09 399.206 642.048 406.264C642.552 403.649 640.849 397.872 640.81 394.612C640.776 391.681 640.374 388.839 639.603 386.083C636.397 374.54 630.684 364.215 622.466 355.11C620.052 352.429 617.586 350.209 615.07 348.453C610.024 343.57 604.395 340.399 598.157 339.061C591.001 337.528 589.177 337.612 581.943 340.348C574.395 344.88 568.632 351.26 564.655 359.487C556.222 371.366 534.866 359.485 534.866 350.539L532.735 322.657C533.919 319.989 534.264 316.955 533.77 313.558C533.486 311.585 533.344 309.336 533.344 306.81C533.351 304.581 533.496 302.362 533.78 300.153C535.137 289.683 535.73 279.236 538.163 268.907C540.308 259.822 543.313 249.573 549.344 236.695C560.773 212.289 578.338 193.992 603.625 184.337C607.124 183.004 629.609 177.327 631.268 184.337Z" fill="#FFC02B"/>
<path d="M609.246 251.291C610.721 265.597 614.018 278.961 619.138 291.383C622.372 299.245 627.029 309.715 633.109 322.791C632.322 323.75 633.386 326.598 632.004 325.699C630.621 324.8 629.379 320.559 627.681 318.141C623.709 312.27 620.524 305.743 617.505 299.336C613.72 290.245 610.266 280.318 608.83 270.521C608.005 264.915 607.518 259.349 607.369 253.824C607.36 253.358 607.988 251.481 608.262 251.271C608.566 251.048 608.894 251.055 609.246 251.291Z" fill="#039EDF"/>
<path d="M595.823 338.607C592.001 338.013 588.251 338.334 584.693 339.313C579.752 341.003 579.501 343.152 577.966 339.458C577.324 337.911 576.813 336.375 576.434 334.848C571.724 315.653 565.645 289.095 572.021 269.994C572.19 269.495 572.379 269.488 572.589 269.974C573.035 271.014 573.292 272.095 573.36 273.216C573.935 282.943 575.318 292.075 577.51 300.613C580.594 312.609 585.525 323.74 592.302 334.007C593.686 336.119 594.193 336.846 595.823 338.607Z" fill="#EF4233"/>
<path d="M413.571 399.935C413.361 400.861 412.966 401.239 412.384 401.07C397.533 396.852 387.54 381.459 373.282 374.97C369.294 373.167 366.076 371.83 361.228 370.036C347.502 364.958 332.018 361.25 319.193 354.129C316.839 352.822 314.232 351.839 311.787 350.33C281.037 331.46 248.218 368.441 248.218 368.441C248.218 368.441 248.08 370.029 248.1 370.624C248.141 371.927 247.81 372.424 247.106 372.113C239.875 354.72 237.769 336.811 240.785 318.384C243.393 302.487 252.24 285.03 266.384 276.529C266.904 276.212 267.476 275.989 268.098 275.861C268.284 275.822 268.476 275.825 268.66 275.868C268.845 275.912 269.017 275.996 269.166 276.114C269.314 276.232 269.434 276.382 269.518 276.551C269.602 276.721 269.647 276.908 269.651 277.097C269.881 286.074 271.487 294.936 274.47 303.683C276.506 309.667 279.651 315.551 283.906 321.332C291.995 332.336 302.327 340.867 314.902 346.925C321.628 350.168 328.599 352.974 335.924 355.122C339.901 356.291 344.058 357.567 348.393 358.952C358.465 362.167 368.07 366.125 377.208 370.826C391.284 378.067 403.405 387.77 413.571 399.935Z" fill="#039EDF"/>
<path d="M415.539 294.787C399.486 282.56 370.947 231.646 369.656 219.721C397.919 242.613 431.856 259.896 448.478 270.21C465.1 280.524 480.039 296.351 484.461 302.649C488.883 308.947 495.999 320.967 497.744 325.108C497.744 337.945 496.792 356.804 495.398 365.476C494.005 374.149 489.588 389.263 484.319 400.381C481.377 406.591 478.657 412.822 474.427 418.415C473.885 419.124 473.267 419.715 472.57 420.188C472.432 420.28 472.272 420.334 472.106 420.343C471.94 420.353 471.775 420.319 471.627 420.243C471.479 420.168 471.354 420.054 471.265 419.915C471.176 419.775 471.125 419.614 471.119 419.449C471.038 416.747 470.659 414.346 469.983 412.245C464.544 395.352 455.839 380.215 443.867 366.834C432.287 353.899 417.951 342.298 400.858 332.031C393.939 327.154 387.036 322.241 380.15 317.289C373.894 312.791 368.655 308.536 364.434 304.523C359.314 299.667 354.427 294.598 349.773 289.315C350.042 286.258 356.483 289.062 358.539 289.842C376.119 296.474 393.125 301.016 411.795 304.716C420.135 306.368 431.593 307.013 415.539 294.787Z" fill="#EF4233"/>
<path d="M413.571 399.935C416.621 403.34 419.121 407.041 421.069 411.04C420.86 412.11 409.751 401.77 406.905 400.614C403.165 399.101 398.82 403.155 393.025 403.702C387.231 404.249 296.263 392.144 267.306 407.97C258.723 396.744 251.99 384.792 247.106 372.113C247.81 372.424 248.141 371.928 248.1 370.624C248.08 370.03 247.989 369.482 247.826 368.983C243.517 355.702 243.938 339.696 244.732 325.973C245.434 313.735 251.242 290.296 263.441 285.517C264.645 285.037 265.835 285.527 267.012 286.986C267.136 287.142 267.225 287.323 267.273 287.517C267.718 289.346 267.996 292.03 268.017 293.926C268.142 302.49 273.065 311.599 277.676 318.496C288.505 334.648 302.14 344.66 319.193 354.129C334.269 362.5 359.787 368.192 369.943 373.035C380.099 377.878 398.21 390.138 401.213 392.144C404.216 394.15 412.852 403.106 413.571 399.935Z" fill="#FFC02B"/>
<path d="M796.701 314.945C794.974 316.549 781.048 312.394 779.211 312.394C763.241 314.109 749.987 318.513 736.04 327.381C730.345 331.002 726.073 334.51 723.226 337.908C722.12 339.215 720.568 339.458 719.766 341.11C719.056 342.596 718.183 343.707 717.148 344.443C716.573 344.855 716.076 345.345 715.657 345.912C713.087 349.391 710.834 352.771 708.9 356.054C708.487 356.757 708.095 357.435 707.723 358.091C706.465 360.299 705.308 362.38 704.253 364.332C703.962 364.865 703.688 365.396 703.431 365.923C699.109 374.737 695.825 382.785 693.579 390.067C691.692 396.166 689.883 403.954 688.151 413.431C686.913 419.037 686.054 424.079 685.574 428.558C685.236 431.692 684.844 434.296 684.397 436.369C684.296 436.808 684.14 437.038 683.931 437.058C683.674 437.085 683.362 436.852 682.997 436.359C684.286 424.991 683.728 411.252 684.661 403.218C687.766 376.308 698.436 352.839 716.672 332.812C721.095 327.948 725.583 324.004 730.135 320.978C734.681 317.965 740.298 315.034 746.988 312.183C763.086 305.321 780.233 304.139 798.428 308.637C799.53 308.907 800.525 309.384 801.411 310.066C801.729 310.309 801.732 310.555 801.421 310.805C801.421 310.805 798.428 313.341 796.701 314.945Z" fill="#039EDF"/>
<path d="M796.759 314.903C783.772 325.014 776.519 336.219 771.44 352.072C767.598 364.054 766.143 376.182 767.077 388.455C767.726 397.033 769.113 406.139 771.237 415.771C773.557 426.287 774.926 433.339 775.346 436.926C775.535 438.56 775.779 440.306 776.076 442.164C776.584 445.325 776.851 447.071 776.878 447.402C778.474 466.261 776.969 483.286 772.363 498.477C768.007 512.864 760.418 526.724 749.595 540.058C741.383 543.687 753.494 522.328 755.51 517.91C774.782 475.744 752.999 452.716 718.457 427.939C710.563 422.287 698.334 412.092 688.151 413.43C689.883 403.953 691.692 396.165 693.579 390.066C695.825 382.785 699.109 374.737 703.431 365.922C706.845 358.924 711.035 352.166 715.657 345.911C720.95 338.75 728.658 331.315 736.103 326.582C746.81 319.773 753.827 316.444 764.608 313.695C772.543 311.01 791.789 312.517 796.759 314.903Z" fill="#FFC02B"/>
<path d="M564.655 359.489C560.962 367.966 558.997 376.976 558.76 386.521C558.523 396.484 558.909 406.548 559.917 416.713C562.27 440.388 566.785 464.114 573.461 487.89C573.999 489.804 574.09 491.79 574.811 493.715C575.413 495.316 575.836 496.9 576.079 498.467C576.097 498.593 576.079 498.722 576.026 498.838C575.974 498.954 575.889 499.052 575.783 499.121C575.677 499.189 575.553 499.225 575.427 499.224C575.302 499.224 575.179 499.186 575.075 499.116C571.25 496.613 567.161 494.627 563.356 492.277C553.251 486.022 543.622 481.071 534.47 477.423C525.17 473.708 514.689 470.135 503.028 466.704C501.824 466.346 500.58 466.045 499.294 465.802C499.139 465.774 498.993 465.705 498.872 465.603C498.752 465.5 498.66 465.368 498.606 465.219C498.553 465.071 498.54 464.91 498.568 464.755C498.596 464.599 498.665 464.454 498.767 464.333C510.665 450.331 519.356 435.903 524.842 421.05C530.145 406.69 533.337 393.029 534.42 380.067C535.049 372.468 535.198 362.626 534.866 350.542C537.517 352.842 536.011 348.019 537.433 344.007C540.442 335.328 564.201 353.423 564.655 359.489Z" fill="#EF4233"/>
<path d="M615.07 348.455C617.586 350.212 620.052 352.43 622.466 355.112C630.685 364.217 636.397 374.541 639.603 386.085C641.109 391.468 643.082 400.909 642.048 406.268C639.71 419.102 633.04 432.65 632.075 445.366C624.851 431.141 618.076 415.109 611.752 397.271C608.533 388.206 607 379.374 607.156 370.776C608.656 373.828 616.952 354.212 615.07 348.455Z" fill="#EF4233"/>
<path d="M421.069 411.04C422.373 413.078 427.556 421.043 429.368 425.022C432.378 431.648 435.054 438.399 437.394 445.275C438.436 448.335 439 451.557 439.088 454.941C439.109 455.515 438.831 455.785 438.256 455.752C433.332 455.461 428.79 455.15 424.63 454.819C412.739 453.877 400.594 454.262 389.089 455.144C382.102 455.677 375.443 455.93 369.111 455.903C351.559 455.843 334.084 452.584 316.687 446.126C312.318 444.505 308.246 442.55 304.472 440.26C290.139 431.56 273.626 419.48 261.016 399.281C265.48 398.851 264.862 399.455 269.62 398.851C275.349 398.128 280.486 397.416 285.032 396.713C287.26 396.37 302.05 392.787 300.784 391.695C299.58 390.655 298.658 389.287 297.501 387.949C288.64 377.709 281.329 366.254 275.566 353.582C275.534 353.52 278.611 358.829 284.139 364.717C286.263 366.973 288.813 369.354 291.789 371.86C294.454 374.109 297.325 376.115 300.403 377.878C308.161 382.329 316.549 385.835 325.565 388.395C329.224 389.429 333.015 389.962 336.939 389.996C347.788 390.097 357.417 390.381 365.824 390.847C371.046 391.137 377.387 391.88 384.848 393.076C388.791 393.711 392.518 394.748 396.029 396.186C399.539 397.625 403.165 399.101 406.905 400.614C409.684 401.743 419.765 409.002 421.069 411.04Z" fill="#EF4233"/>
<path d="M607.156 370.776C607.001 379.374 608.533 388.206 611.752 397.27C618.077 415.109 624.851 431.141 632.075 445.366C641.551 465.083 653.645 483.128 665.414 501.517L709.691 572.278C718.491 586.563 724.143 596.03 726.645 600.677C733.247 612.93 739.818 623.626 746.359 632.765C748.523 635.791 750.759 638.905 753.065 642.106C759.234 650.668 767.331 659.665 774.879 665.551C779.898 669.462 784.991 672.485 790.159 674.619C792.898 675.747 796.077 676.5 799.696 676.879C804.438 677.365 809.142 677.672 813.809 677.801C820.715 677.99 828.352 677.74 836.719 677.051C844.051 676.45 850.724 675.447 856.737 674.042C885.085 667.446 911.119 655.024 932.253 634.761C940.891 626.48 949.085 618.006 956.837 609.34C957.168 608.975 957.574 608.749 958.054 608.661C964.771 607.425 971.193 609.816 973.446 616.331C976.175 624.203 968.19 631.741 963.31 636.665C953.905 646.149 943.576 656.605 932.659 665.693C925.628 671.549 918.901 676.869 910.744 681.874C893.002 692.776 876.17 701.654 860.247 708.51C850.467 712.725 841.471 716.805 833.259 720.75C829.336 722.627 824.885 725.309 819.907 728.794C815.023 732.212 811.263 735.329 808.625 738.146C801.888 745.312 797.045 753.33 794.096 762.199C788.17 780.031 791.579 800.771 800.122 817.306C803.078 823.02 806.568 829.177 810.593 835.776C811.952 838.015 812.653 841.41 811.932 844.024C810.106 850.69 806.088 855.358 799.879 858.026C797.352 859.11 794.258 859.353 791.762 858.208C787.135 856.074 783.331 852.929 780.348 848.775C777.476 844.773 774.656 840.721 771.348 837.093C760.736 825.455 749.873 815.347 738.759 806.769C733.47 802.689 727.525 798.866 720.923 795.3C704.554 786.458 687.492 779.274 669.737 773.749C669.54 773.351 669.249 773.033 668.864 772.797C668.81 772.763 668.796 772.716 668.823 772.655C668.864 772.567 668.932 772.523 669.026 772.523C669.5 772.55 669.517 772.469 669.077 772.28C668.549 772.05 668.096 771.709 667.717 771.257C667.176 770.602 666.615 769.97 666.033 769.362C665.945 769.274 665.925 769.173 665.972 769.058C665.993 769.024 666.023 769.007 666.064 769.007C666.368 769.014 666.436 768.889 666.267 768.633C666.07 768.342 665.813 768.119 665.495 767.964C665.211 767.822 664.992 767.603 664.836 767.305C664.538 766.718 664.599 766.211 665.019 765.786C665.255 765.549 665.269 765.296 665.059 765.026C664.396 764.168 663.723 763.357 663.04 762.594C662.391 761.865 662.036 761.007 661.975 760.021C661.9 758.92 661.85 757.869 661.823 756.869C661.816 756.527 661.702 756.197 661.498 755.927C660.882 755.076 660.531 754.144 660.443 753.131C660.416 752.813 660.294 752.54 660.078 752.31C655.235 747.177 650.378 742.084 645.508 737.031C645.244 736.754 644.984 736.478 644.727 736.201C642.555 733.83 640.574 731.665 638.781 729.706C638.639 729.551 638.46 729.473 638.243 729.473H637.817C637.493 729.473 637.246 729.331 637.077 729.048C634.506 724.603 632.71 721.79 631.689 720.608C629.207 717.744 627.069 714.778 625.277 711.712C625 711.239 625 710.78 625.277 710.334C625.432 710.084 625.49 709.811 625.449 709.513L625.257 708.186C630.059 704.701 633.921 700.418 636.843 695.339C636.945 695.163 636.901 695.038 636.711 694.964C624.891 690.02 616.43 681.57 619.423 667.801C621.053 660.276 622.534 653.177 623.867 646.503C624.901 641.269 625.507 634.288 625.683 625.561C625.838 617.685 625.673 609.583 625.186 601.255C624.78 594.297 623.505 585.972 621.36 576.28C618.993 565.601 616.44 554.709 613.7 543.605C610.139 529.157 604.66 515.479 600.541 501.345C597.585 491.213 594.45 480.446 591.136 469.044C587.571 456.778 584.571 443.549 582.136 429.358C581.034 422.907 580.391 414.312 580.208 403.572C580.026 393.076 579.863 382.336 582.065 373.005C583.141 368.435 585.86 364.96 589.604 362.224C590.415 361.637 591.383 361.161 592.505 360.796C593.54 360.458 594.585 360.141 595.64 359.843C597.237 359.384 599.323 359.553 601.901 360.35C602.217 360.449 602.491 360.648 602.682 360.917C604.833 363.984 606.324 367.27 607.156 370.776ZM726.767 720.557C723.913 714.87 719.371 710.624 713.141 707.821C705.004 704.16 697.012 704.886 689.166 710C684.742 712.884 681.749 716.643 680.187 721.276C677.055 730.571 678.286 739.058 683.88 746.738C691.814 757.64 707.297 760.203 718.254 752.118C724.849 747.241 728.397 740.203 728.898 731.003C729.101 727.254 728.39 723.772 726.767 720.557Z" fill="#039EDF"/>
<path d="M116.497 387.301C114.728 387.394 114.828 388.636 115.411 390.087C120.073 401.673 129.642 416.782 137.408 421.415C145.174 426.047 166.08 440.147 215.562 443.796C240.035 445.6 236.516 446.751 247.086 452.783C247.086 454.243 247.72 460.177 242.476 458.998C237.673 457.931 229.822 459.025 225.892 458.998C220.413 458.965 214.747 458.938 209.309 458.998C200.928 459.093 189.994 453.691 175.912 451.496C162.125 449.384 155.361 470.287 144.48 466.856C129.362 456.187 114.255 440.128 107.751 422.762C102.259 408.105 102.212 393.454 107.609 378.81C108.509 376.365 109.76 374.183 111.363 372.265C113.102 370.185 113.876 370.495 113.687 373.197C113.389 377.52 114.326 382.221 116.497 387.301Z" fill="#FFC02B"/>
<path d="M749.595 540.059C745.334 545.361 741.567 549.599 738.293 552.774C732.665 558.225 727.048 563.689 721.44 569.167C719.853 570.712 714.982 574.789 712.528 576.795C711.143 574.902 711.3 574.75 709.691 572.278L664.255 499.664C665.32 497.466 665.495 496.954 666.003 495.742C669.689 486.968 672.77 479.095 675.246 472.125C679.297 460.75 681.881 448.828 682.997 436.359C683.363 436.852 683.674 437.085 683.931 437.058C684.14 437.038 684.296 436.809 684.397 436.369C684.844 434.296 685.236 431.692 685.574 428.558C686.322 421.587 687.933 414.765 689.179 407.876C692.979 409.683 696.326 409.963 703.901 415.507C711.475 421.052 713.238 424.203 718.457 427.94C718.938 428.284 719.195 428.163 719.229 427.575C720.074 412.186 721.949 396.391 724.436 381.169C738.856 391.474 751.234 419.201 757.296 436.035C758.541 439.473 759.724 442.975 760.847 446.542C762.051 450.331 762.853 454.046 763.252 457.687C764.336 467.514 765.086 475.717 764.124 485.316C762.417 504.172 754.036 521.733 749.595 540.059Z" fill="#EF4233"/>
<path d="M116.497 387.301C117.113 389.462 117.975 391.563 119.084 393.603C126.856 407.879 136.82 418.325 152.038 425.589C164.904 431.722 178.421 435.427 192.592 436.704C199.958 437.372 207.08 438.132 214.304 438.781C234.285 440.584 251.415 448.544 265.694 462.661C265.497 462.864 265.477 463.063 265.633 463.259C265.775 463.442 265.751 463.604 265.562 463.746C265.386 463.867 265.163 463.827 264.892 463.624C258.73 458.957 252.795 455.343 247.086 452.783C240.389 448.962 231.697 446.108 224.014 445.002C208.862 442.769 185.304 441.025 177.282 439.46C169.259 437.894 153.404 431.616 147.282 428.395C139.726 424.42 129.934 416.927 124.974 409.691C120.186 402.724 115.552 391.041 115.231 390.262C114.91 389.482 114.718 388.158 115.107 387.666C115.496 387.174 116.399 387.306 116.497 387.301Z" fill="#039EDF"/>
<path d="M42.1171 437.808C40.9604 439.963 40.7913 442.283 41.6098 444.769C48.7712 466.572 77.5876 487.962 87.9902 492.083C98.3929 496.203 122.333 501.201 129.948 502.807C137.562 504.413 151.614 507.998 162.215 511.862C167.067 513.641 175.173 518.261 176.855 515.124L194.479 526.016C195.061 527.414 194.185 527.373 191.851 525.894C188.847 524.008 178.216 518.113 172.036 518.822C140.533 522.438 109.168 559.859 81.7675 560.038C72.2759 560.114 63.2968 554.515 54.3531 551.781C34.1694 538.596 20.567 521.166 13.546 499.491C10.8134 491.054 9.6601 481.321 10.0862 470.291C10.6138 456.491 13.7388 443.33 20.3641 431.05C24.7472 422.924 32.0928 416.298 39.6211 410.857C40.2772 410.385 40.5478 410.547 40.4328 411.344C39.1071 420.347 39.6685 429.169 42.1171 437.808Z" fill="#FFC02B"/>
<path d="M42.1171 437.808C46.3784 451.196 52.8921 462.064 61.6582 470.412C67.8743 476.322 75.9877 481.692 85.9984 486.522C94.2978 490.527 104.139 493.594 115.523 495.722C128.956 498.234 139.85 500.646 148.203 502.956C157.774 505.603 167.325 509.66 176.856 515.124C176.537 515.717 176.424 517.244 174.324 516.545C167.78 514.361 161.591 511.345 154.9 509.572C146.603 507.37 133.325 504.82 129.051 504.19C124.777 503.561 108.784 500.248 98.3359 497.636C89.7163 495.504 78.6503 489.631 71.3476 484.475C61.6389 477.648 46.5451 462.451 43.0911 450.615C41.9133 446.653 40.0227 441.71 42.1171 437.808Z" fill="#039EDF"/>
<path d="M247.086 452.783C252.795 455.343 258.045 458.43 264.207 463.098C265.212 463.851 265.41 462.954 265.694 462.661C268.785 465.437 271.741 468.322 274.561 471.314C275.948 472.786 277.645 473.992 279.654 474.931C279.757 474.978 279.845 475.051 279.911 475.142C279.977 475.233 280.019 475.34 280.032 475.451C280.046 475.563 280.03 475.676 279.987 475.78C279.944 475.884 279.875 475.976 279.786 476.045C279.347 476.397 278.86 476.691 278.325 476.927C264.192 483.34 248.953 489.308 234.211 491.213C220.541 492.969 207.145 492.179 194.022 488.842C176.622 484.424 158.987 477.067 144.48 466.856C141.79 464.963 140.387 463.808 137.385 461.473C146.393 459.949 158.025 456.421 163.96 452.226C164.67 451.726 164.663 451.233 163.94 450.746L151.799 442.674C160.226 446.537 172.045 450.903 175.912 451.496C183.687 452.708 243.497 461.399 245.686 455.883C246.178 454.653 245.551 453.77 247.086 452.783Z" fill="#EF4233"/>
<path d="M625.256 708.186L625.449 709.513C625.49 709.811 625.432 710.084 625.277 710.334C624.999 710.78 624.999 711.239 625.277 711.712C627.069 714.779 629.207 717.744 631.689 720.608C632.71 721.79 634.506 724.603 637.077 729.048C637.246 729.331 637.492 729.473 637.817 729.473H638.243C638.46 729.473 638.639 729.551 638.781 729.706C640.574 731.665 642.555 733.83 644.727 736.201C644.984 736.478 645.244 736.755 645.508 737.031C650.378 742.084 655.234 747.177 660.077 752.31C660.294 752.54 660.416 752.813 660.443 753.131C660.531 754.144 660.882 755.076 661.498 755.927C661.702 756.198 661.816 756.527 661.822 756.87C661.85 757.869 661.9 758.92 661.975 760.021C662.036 761.007 662.391 761.865 663.04 762.594C663.723 763.357 664.396 764.168 665.059 765.026C665.269 765.296 665.255 765.549 665.019 765.786C664.599 766.211 664.538 766.718 664.836 767.305C664.991 767.603 665.211 767.822 665.495 767.964C665.813 768.119 666.07 768.342 666.266 768.633C666.436 768.889 666.368 769.014 666.064 769.008C666.023 769.008 665.993 769.024 665.972 769.058C665.925 769.173 665.945 769.274 666.033 769.362C666.615 769.97 667.176 770.602 667.717 771.257C668.096 771.709 668.549 772.05 669.077 772.28C669.517 772.469 669.5 772.55 669.026 772.523C668.931 772.523 668.864 772.567 668.823 772.655C668.796 772.716 668.81 772.763 668.864 772.797C669.249 773.033 669.54 773.351 669.736 773.749C655.441 769.909 639.146 765.076 627.103 760.76C609.442 754.438 593.476 745.508 579.204 733.972C573.786 729.605 568.165 725.187 562.899 720.506C553.863 712.475 543.314 702.529 531.254 690.668C526.1 685.592 520.55 680.334 514.99 675.896C498.844 663.001 485.056 652.751 473.625 645.146C459.15 635.507 442.145 627.381 422.611 620.769C416.835 618.817 411.129 617.297 405.495 616.209C393.056 613.808 380.678 611.893 367.803 611.437C354.91 610.971 343.029 611.231 332.16 612.217C323.231 613.028 313.677 614.629 303.497 617.02C286.642 620.971 270.526 627.057 255.152 635.277C244.817 640.803 235.658 646.581 227.677 652.613C216.881 660.769 205.822 669.574 196.457 679.442C184.803 691.729 175.469 702.6 168.455 712.056C162.583 719.98 156.164 729.27 149.198 739.929C145.822 745.103 142.335 750.821 138.737 757.082C122.835 784.729 108.353 813.263 95.292 842.686C89.1368 856.547 82.481 871.778 75.3247 888.381C72.7747 894.311 70.2518 900.515 67.7559 906.993C67.1539 908.553 66.2948 910.06 65.1788 911.512C63.596 913.569 60.0145 913.66 59.3246 910.732C56.5851 899.215 55.1275 888.084 54.9516 877.337C54.6676 859.741 55.7768 843.287 58.2795 827.975C60.2073 816.141 62.7573 804.287 65.9296 792.412C68.209 783.874 71.0668 774.577 74.5029 764.519C76.8094 757.765 79.187 751.442 81.6355 745.552C89.4953 726.64 98.0077 708.77 107.173 691.945C111.11 684.721 115.178 675.582 120.15 667.973C125.943 659.107 131.645 650.222 138.017 641.498C147.25 628.861 156.367 617.202 165.37 606.523C171.691 599.026 178.54 591.204 185.216 584.456C203.465 566.016 224.998 548.404 249.815 531.619C269.099 518.576 290.565 508.305 314.212 500.808C324.966 497.393 335.853 494.222 347.206 492.145C363.447 489.173 376.427 487.326 386.146 486.603C393.14 486.083 404.145 485.911 419.161 486.086C451.926 486.478 483.007 491.851 512.403 502.206C533.06 509.47 552.358 518.508 570.225 531.203C575.21 534.756 580.743 538.944 586.824 543.767C589.989 546.279 589.735 551.447 590.578 555.033C594.122 570.319 596.165 585.354 596.706 600.14C597.335 617.466 596.827 633.768 593.073 650.668C591.054 659.776 588.751 668.52 587.95 678.368C587.612 682.515 587.852 686.301 588.67 689.726C590.446 697.183 596.33 704.194 602.55 708.368C608.921 712.654 618.804 711.367 625.256 708.186Z" fill="#039EDF"/>
<path d="M194.479 526.016C195.074 526.4 196.867 527.281 197.462 528.078C197.942 528.713 197.702 529.205 197.14 529.766C192.503 534.345 187.925 538.762 182.598 542.521C180.921 543.71 179.125 545.108 177.211 546.715C172.848 550.39 167.876 553.642 162.296 556.472C155.451 559.944 147.219 562.899 137.601 565.338C131.04 566.999 124.228 567.901 117.167 568.043C105.485 568.286 95.4207 567.513 86.9725 565.723C75.8593 563.379 64.9862 558.732 54.3532 551.781C70.7828 556.804 88.0603 552.502 97.8591 538.63C98.0756 538.326 98.0147 538.097 97.6765 537.941C90.5946 534.625 84.0877 531.109 78.1557 527.394C74.4896 525.097 71.2395 522.416 68.4054 519.349C66.1733 516.938 64.1542 515.043 61.8409 512.652C59.5277 510.261 51.8804 500.617 50.7659 498.189C52.4545 500.179 60.0079 507.593 64.1542 509.694C68.6793 511.977 73.4547 513.76 78.4803 515.043C87.1517 517.252 95.8062 518.407 104.444 518.508C122.849 518.722 140.132 515.41 158.551 516.708C162.67 516.991 178.687 518.168 182.424 518.558C186.063 520.796 193.885 525.632 194.479 526.016Z" fill="#EF4233"/>
<path d="M888.889 526.867C885.551 527.313 883.989 525.864 881.401 524.678C880.583 524.3 879.724 524.03 878.824 523.868C877.404 523.604 876.038 523.233 874.725 522.753C872.737 522.024 870.637 521.473 868.425 521.102C866.416 520.771 864.316 520.592 862.124 520.565C858.343 520.524 854.829 520.602 851.582 520.798C848.958 520.953 845.448 521.564 841.051 522.632C840.307 522.814 839.546 522.949 838.768 523.037C837.956 523.132 837.229 523.408 836.587 523.868C835.45 524.685 834.192 525.121 832.812 525.175C832.427 525.188 832.065 525.293 831.727 525.489C830.408 526.259 829.018 526.752 827.557 526.968C827.144 527.029 826.789 527.201 826.492 527.485C825.808 528.12 825.037 528.545 824.178 528.761C821.997 529.309 820.455 530.717 818.456 531.639C817.59 532.037 816.853 532.574 816.244 533.25C815.202 534.425 813.884 535.364 812.287 536.066C811.993 536.191 811.754 536.418 811.618 536.705C811.306 537.333 810.823 537.748 810.167 537.951C809.856 538.039 809.582 538.191 809.345 538.407C807.383 540.163 805.401 542.254 803.399 544.679C800.477 548.218 797.234 552.281 793.669 556.867C792.655 558.164 791.66 559.505 790.686 560.889C788.197 564.652 785.752 568.485 783.351 572.389C781.186 575.908 779.357 579.63 777.862 583.554C777.779 583.779 777.616 583.966 777.402 584.078C777.189 584.19 776.941 584.22 776.705 584.162C776.678 584.156 776.577 583.852 776.401 583.25C777.605 579.826 778.812 576.408 780.023 572.997C781.531 568.762 782.884 565.408 784.081 562.936C792.137 546.33 806.311 530.16 823.164 522.419C835.4 516.799 847.659 514.307 859.943 514.942C870.535 515.489 880.184 519.464 888.889 526.867Z" fill="#039EDF"/>
<path d="M888.889 526.867C892.968 530.176 896.438 534.037 899.299 538.447C899.374 538.566 899.414 538.704 899.414 538.844C899.415 538.984 899.376 539.122 899.302 539.241C899.228 539.36 899.122 539.457 898.996 539.519C898.87 539.581 898.729 539.606 898.589 539.592C878.611 537.485 862.682 543.23 851.806 560.444C848.397 565.841 845.833 570.893 844.115 575.601C841.917 581.606 839.928 586.466 838.149 590.181C825.53 587.043 800.056 564.987 790.687 560.889C791.661 559.505 792.655 558.164 793.669 556.867C797.234 552.281 800.477 548.218 803.399 544.678C805.402 542.254 807.383 540.163 809.345 538.407C816.318 532.04 828.285 525.093 838.349 522.734C848.413 520.375 858.099 519.4 868.425 521.102C872.544 521.794 877.618 522.929 881.402 524.678C883.989 525.864 885.551 527.313 888.889 526.867Z" fill="#FFC02B"/>
<path d="M838.149 590.181L832.001 601.741C831.37 602.893 830.442 604.461 829.688 605.521C825.582 611.33 822.095 615.49 819.227 618.003C810.136 625.994 798.969 629.661 785.725 629.006C778.609 628.655 770.425 627.571 761.172 625.754C761.097 625.737 761.028 625.699 760.975 625.645C760.921 625.59 760.884 625.521 760.869 625.446C760.854 625.37 760.861 625.292 760.89 625.221C760.918 625.15 760.967 625.089 761.03 625.045C765.322 622.036 766.935 615.946 768.305 611.164C770.99 601.85 773.689 592.545 776.401 583.251C776.577 583.852 776.678 584.156 776.705 584.163C776.941 584.221 777.189 584.191 777.402 584.079C777.616 583.966 777.78 583.78 777.862 583.555C779.357 579.63 781.187 575.909 783.351 572.39C785.752 568.485 788.197 564.652 790.687 560.89C793.022 557.36 797.679 551.147 800.361 548.357C801.617 550.411 802.909 557.685 806.007 561.153C810.914 552.49 819.655 538.869 829.805 536.964C834.914 543.166 840.342 568.92 840.798 576.655C840.919 578.848 841.305 583.274 838.149 590.181Z" fill="#EF4233"/>
<path d="M340.865 695.096C331.808 696.008 324.074 696.227 317.661 695.754C317.426 695.737 317.198 695.663 316.998 695.538C316.798 695.413 316.63 695.242 316.511 695.039C316.391 694.836 316.323 694.607 316.311 694.371C316.299 694.136 316.345 693.901 316.444 693.687C324.141 677.118 336.147 664.876 352.462 656.959C361.762 652.447 371.188 649.958 380.739 649.492C406.581 648.216 432.432 657.395 453.587 672.036C454.263 672.502 454.919 673.032 455.555 673.626C456.279 674.302 456.177 674.819 455.251 675.177C452.136 676.362 448.828 676.767 445.592 677.699C432.564 681.475 424.116 683.836 420.247 684.782C409.817 687.328 400.97 689.131 393.705 690.192C385.375 691.408 376.538 692.512 368.016 693.009C360.765 693.434 352.932 694.018 344.518 694.761C343.233 694.869 342.015 694.981 340.865 695.096Z" fill="#039EDF"/>
<path d="M726.767 720.557C728.39 723.772 729.1 727.254 728.898 731.003C728.397 740.203 724.849 747.241 718.254 752.118C707.297 760.203 691.814 757.64 683.88 746.738C678.286 739.058 677.055 730.571 680.187 721.276C681.749 716.643 684.742 712.884 689.166 710C697.012 704.886 705.004 704.16 713.141 707.821C719.37 710.624 723.912 714.87 726.767 720.557ZM716.454 728.964C717.523 726.981 717.576 724.557 716.601 722.224C715.627 719.892 713.704 717.842 711.257 716.526C710.045 715.875 708.741 715.423 707.418 715.196C706.096 714.97 704.782 714.974 703.551 715.207C702.32 715.441 701.196 715.899 700.243 716.557C699.29 717.214 698.527 718.058 697.998 719.04C696.929 721.023 696.876 723.447 697.85 725.779C698.825 728.112 700.747 730.162 703.195 731.478C704.407 732.129 705.711 732.581 707.033 732.807C708.355 733.034 709.67 733.03 710.901 732.797C712.132 732.563 713.256 732.104 714.209 731.447C715.162 730.789 715.925 729.945 716.454 728.964Z" fill="#02133B"/>
<path d="M402.603 734.914C399.587 732.192 396.746 729.429 394.081 726.626C393.452 725.964 392.914 725.194 392.467 724.316C392.396 724.176 392.362 724.02 392.368 723.864C392.374 723.707 392.421 723.554 392.504 723.421C392.586 723.287 392.702 723.177 392.84 723.102C392.977 723.026 393.132 722.987 393.289 722.989C395.734 723.019 398.088 723.455 400.29 724.488C407.879 728.082 414.264 730.26 419.446 731.023C432.73 732.982 445.338 731.331 457.27 726.069C465.928 722.252 475.6 717.528 486.287 711.894C488.026 710.976 490.285 710.871 493.065 711.58C503.177 714.16 513.194 718.493 523.117 724.579C523.672 724.917 523.706 725.305 523.219 725.744C518.903 729.615 514.977 732.756 511.439 735.167C509.2 736.694 506.552 738.278 503.495 739.919C500.796 741.364 498.104 742.837 495.419 744.336C479.682 753.131 461.886 756.555 444.05 753.445C428.993 750.821 413.561 744.802 402.603 734.914Z" fill="#039EDF"/>
<path d="M716.454 728.964C715.925 729.945 715.162 730.789 714.209 731.447C713.256 732.104 712.132 732.563 710.901 732.797C709.67 733.03 708.355 733.034 707.033 732.807C705.711 732.581 704.407 732.129 703.195 731.477C700.747 730.162 698.825 728.112 697.85 725.779C696.876 723.447 696.929 721.023 697.998 719.04C698.527 718.058 699.29 717.214 700.243 716.557C701.196 715.899 702.32 715.441 703.551 715.207C704.782 714.974 706.096 714.97 707.418 715.196C708.741 715.423 710.045 715.875 711.257 716.526C713.704 717.842 715.627 719.892 716.601 722.224C717.576 724.557 717.523 726.981 716.454 728.964Z" fill="#039EDF"/>
<path d="M474.508 790.71C473.967 789.535 474.203 788.684 475.218 788.157C476.618 787.437 478.678 787.67 480.21 788.005C489.916 790.072 499.68 790.048 509.501 787.934C526.658 784.236 540.213 772.645 552.49 760.831C553.849 759.514 556.944 756.971 558.922 758.065C567.918 763.03 576.238 768.079 583.881 773.212C584.355 773.537 584.757 773.922 585.089 774.367C585.285 774.63 585.373 774.958 585.335 775.284C585.298 775.61 585.137 775.909 584.886 776.12C578.413 781.544 571.243 786.654 563.376 791.45C556.977 795.34 550.562 798.336 544.129 800.437C531.508 804.57 517.76 805.56 502.886 803.405C492.679 801.926 483.467 798.005 475.248 791.642C474.929 791.396 474.674 791.076 474.508 790.71Z" fill="#039EDF"/>
</svg>
